<svg width="72" height="88" viewBox="0 0 72 88" fill="none" xmlns="http://www.w3.org/2000/svg">
  <ellipse cx="36" cy="83" rx="13" ry="3.5" fill="#00000018" id="shadow-__UID__"/>
  <g id="body-__UID__">
    <circle cx="20" cy="24" r="1.2" fill="#E1BEE7" opacity="0.9"/>
    <circle cx="52" cy="20" r="1" fill="#CE93D8"/>
    <circle cx="48" cy="32" r="0.8" fill="#F3E5F5"/>
    <path d="M14 40 Q8 72 18 78 L36 74 L54 78 Q64 72 58 40Z" fill="#4A148C" opacity="0.95"/>
    <path d="M20 38 Q16 65 24 72 L36 69 L48 72 Q56 65 52 38Z" fill="#6A1B9A" opacity="0.85"/>
    <rect x="24" y="36" width="24" height="14" rx="5" fill="#7B1FA2"/>
    <circle cx="36" cy="22" r="11" fill="#CE93D8" stroke="#4A148C" stroke-width="0.5"/>
    <ellipse cx="31" cy="20" rx="2" ry="3" fill="#FFEE58"/>
    <ellipse cx="41" cy="20" rx="2" ry="3" fill="#FFEE58"/>
    <circle cx="50" cy="52" r="8" fill="#1A1A2E" stroke="#311B92" stroke-width="1"/>
    <circle cx="50" cy="52" r="4" fill="#0D0221"/>
    <rect x="8" y="44" width="14" height="8" rx="3" fill="#BA68C8"/>
    <rect x="24" y="58" width="10" height="16" rx="4" fill="#38006B"/>
    <rect x="38" y="58" width="10" height="16" rx="4" fill="#38006B"/>
  </g>
</svg>
