<svg width="72" height="88" viewBox="0 0 72 88" fill="none" xmlns="http://www.w3.org/2000/svg">
  <ellipse cx="36" cy="83" rx="13" ry="3.5" fill="#00000018" id="shadow-__UID__"/>
  <g id="body-__UID__">
    <path d="M22 18 L36 8 L50 18 L46 22 L26 22Z" fill="#FFC107"/>
    <rect x="24" y="20" width="24" height="5" rx="2" fill="#FFA000"/>
    <circle cx="36" cy="32" r="12" fill="#FFCC80" stroke="#D7CCC8" stroke-width="0.5"/>
    <circle cx="31" cy="30" r="1.6" fill="#37474F"/>
    <circle cx="41" cy="30" r="1.6" fill="#37474F"/>
    <path d="M30 36 Q36 39 42 36" stroke="#8D6E63" stroke-width="1" fill="none"/>
    <rect x="22" y="42" width="28" height="22" rx="6" fill="#1565C0"/>
    <rect x="26" y="46" width="20" height="6" rx="2" fill="#42A5F5" opacity="0.5"/>
    <rect x="6" y="46" width="14" height="10" rx="2" fill="#E3F2FD" stroke="#90CAF9"/>
    <line x1="8" y1="50" x2="18" y2="50" stroke="#1976D2" stroke-width="0.8"/>
    <line x1="8" y1="53" x2="16" y2="53" stroke="#1976D2" stroke-width="0.8"/>
    <rect x="54" y="44" width="4" height="18" rx="1" fill="#8D6E63"/>
    <line x1="56" y1="44" x2="56" y2="62" stroke="#5D4037" stroke-width="0.5"/>
    <rect x="24" y="62" width="10" height="14" rx="4" fill="#0D47A1"/>
    <rect x="38" y="62" width="10" height="14" rx="4" fill="#0D47A1"/>
  </g>
</svg>
