<svg width="72" height="88" viewBox="0 0 72 88" fill="none" xmlns="http://www.w3.org/2000/svg">
  <ellipse cx="36" cy="83" rx="13" ry="3.5" fill="#00000018" id="shadow-__UID__"/>
  <g id="body-__UID__">
    <path d="M16 42 Q10 74 20 80 L36 77 L52 80 Q62 74 56 42Z" fill="#212121"/>
    <path d="M22 42 Q18 68 26 74 L36 72 L46 74 Q54 68 50 42Z" fill="#424242"/>
    <rect x="22" y="36" width="28" height="16" rx="6" fill="#212121"/>
    <rect x="24" y="50" width="24" height="3" fill="#FFD54F"/>
    <rect x="9" y="40" width="14" height="7" rx="3" fill="#FFCC80"/>
    <rect x="49" y="40" width="14" height="7" rx="3" fill="#FFCC80"/>
    <circle cx="36" cy="22" r="12" fill="#FFCC80" stroke="#D7CCC8" stroke-width="0.5"/>
    <path d="M30 20 Q33 17 36 20 Q39 17 42 20" stroke="#37474F" stroke-width="1.2" fill="none"/>
    <circle cx="32" cy="21" r="1.3" fill="#37474F"/>
    <circle cx="40" cy="21" r="1.3" fill="#37474F"/>
    <path d="M30 28 Q36 32 42 28" stroke="#C2185B" stroke-width="1" fill="none"/>
    <polygon points="22,14 26,6 30,12 36,4 42,12 46,6 50,14" fill="#FFD54F" stroke="#F9A825" stroke-width="0.5"/>
    <rect x="22" y="12" width="28" height="5" rx="2" fill="#FFC107"/>
    <rect x="44" y="44" width="3" height="14" rx="1" fill="#FFD54F"/>
    <path d="M46 42 Q50 40 52 44" stroke="#FFD54F" stroke-width="2" fill="none"/>
    <rect x="12" y="48" width="14" height="18" rx="2" fill="#FFF8E1" stroke="#FFD54F" stroke-width="0.6"/>
    <path d="M15 54 Q20 52 25 56 Q18 58 15 54" stroke="#5D4037" stroke-width="0.8" fill="none"/>
    <line x1="15" y1="60" x2="28" y2="60" stroke="#D7CCC8" stroke-width="0.6"/>
    <rect x="26" y="60" width="8" height="14" rx="3" fill="#212121"/>
    <rect x="38" y="60" width="8" height="14" rx="3" fill="#212121"/>
  </g>
</svg>
