<svg width="72" height="88" viewBox="0 0 72 88" fill="none" xmlns="http://www.w3.org/2000/svg">
  <ellipse cx="36" cy="83" rx="13" ry="3.5" fill="#00000018" id="shadow-__UID__"/>
  <g id="body-__UID__">
    <ellipse cx="36" cy="14" rx="18" ry="7" fill="#263238"/>
    <rect x="20" y="14" width="32" height="6" rx="2" fill="#37474F"/>
    <circle cx="36" cy="30" r="12" fill="#FFCC80" stroke="#D7CCC8" stroke-width="0.5"/>
    <path d="M40 22 L44 30" stroke="#BF360C" stroke-width="1.2" stroke-linecap="round"/>
    <circle cx="31" cy="28" r="1.5" fill="#212121"/>
    <circle cx="41" cy="28" r="1.5" fill="#212121"/>
    <path d="M30 34 Q36 37 42 34" stroke="#6D4C41" stroke-width="1" fill="none"/>
    <path d="M16 42 Q12 68 20 76 L36 72 L52 76 Q60 68 56 42Z" fill="#37474F"/>
    <rect x="24" y="40" width="24" height="8" rx="2" fill="#546E7A"/>
    <circle cx="52" cy="48" r="9" fill="none" stroke="#B0BEC5" stroke-width="2"/>
    <line x1="58" y1="54" x2="64" y2="60" stroke="#B0BEC5" stroke-width="2" stroke-linecap="round"/>
    <rect x="8" y="50" width="10" height="10" rx="2" fill="#ECEFF1" stroke="#BDBDBD"/>
    <circle cx="11" cy="53" r="1" fill="#212121"/>
    <circle cx="15" cy="53" r="1" fill="#212121"/>
    <circle cx="13" cy="56" r="1" fill="#212121"/>
    <rect x="24" y="64" width="10" height="14" rx="4" fill="#263238"/>
    <rect x="38" y="64" width="10" height="14" rx="4" fill="#263238"/>
  </g>
</svg>
