<svg width="72" height="88" viewBox="0 0 72 88" fill="none" xmlns="http://www.w3.org/2000/svg">
  <ellipse cx="36" cy="83" rx="13" ry="3.5" fill="#00000018" id="shadow-__UID__"/>
  <g id="body-__UID__">
    <rect x="20" y="44" width="32" height="28" rx="8" fill="#F5F5F0" stroke="#BDBDBD" stroke-width="0.8"/>
    <circle cx="28" cy="54" r="2" fill="#424242"/>
    <circle cx="36" cy="54" r="2" fill="#424242"/>
    <circle cx="44" cy="54" r="2" fill="#424242"/>
    <circle cx="32" cy="62" r="2" fill="#424242"/>
    <circle cx="40" cy="62" r="2" fill="#424242"/>
    <rect x="26" y="8" width="20" height="18" rx="5" fill="#EDE7F6" stroke="#9575CD" stroke-width="0.8"/>
    <circle cx="32" cy="16" r="1.8" fill="#5E35B1"/>
    <circle cx="40" cy="16" r="1.8" fill="#5E35B1"/>
    <circle cx="36" cy="20" r="1.8" fill="#5E35B1"/>
    <path d="M24 6 L36 2 L48 6 L44 10 L28 10Z" fill="#7E57C2"/>
    <rect x="8" y="50" width="12" height="8" rx="3" fill="#BDBDBD"/>
    <rect x="52" y="50" width="12" height="8" rx="3" fill="#BDBDBD"/>
    <rect x="24" y="70" width="10" height="12" rx="4" fill="#78909C"/>
    <rect x="38" y="70" width="10" height="12" rx="4" fill="#78909C"/>
  </g>
</svg>
